<?xml version="1.0" encoding="utf-8"?>
<!-- Svg Vector Icons : http://www.onlinewebfonts.com/icon -->
<!DOCTYPE svg PUBLIC "-//W3C//DTD SVG 1.1//EN" "http://www.w3.org/Graphics/SVG/1.1/DTD/svg11.dtd">
<svg version="1.1" xmlns="http://www.w3.org/2000/svg" xmlns:xlink="http://www.w3.org/1999/xlink" x="0px" y="0px" viewBox="0 0 1000 1000" enable-background="new 0 0 1000 1000" xml:space="preserve">
<metadata> Svg Vector Icons : http://www.onlinewebfonts.com/icon </metadata>
<g><path d="M500,939.3L500,939.3c-5.7,0-11.1-2.3-15.1-6.3L133.3,576.2C53.8,496.7,10,402,10,309.8c0-149,99-249.1,246.3-249.1c126.7,0,176.9,56.3,243.7,134.8c66.8-78.5,117-134.8,243.6-134.8C891,60.7,990,160.8,990,309.8c0,92.3-43.8,186.9-123.4,266.5L515.1,933C511.1,937.1,505.6,939.3,500,939.3z M256.3,103c-123.9,0-204,81.2-204,206.8c0,81,39.4,165,111,236.6L500,888.1l336.6-341.6c71.7-71.7,111.1-155.7,111.1-236.7c0-125.6-80.1-206.8-204.1-206.8c-109.5,0-149.3,46.8-215.2,124.3l-12.4,14.5c-4,4.7-9.9,7.4-16.1,7.4l0,0c-6.2,0-12.1-2.7-16.1-7.4l-12.3-14.5C405.6,149.8,365.8,103,256.3,103z"/></g>
</svg>